<?xml version="1.0" encoding="iso-8859-1"?>
<!-- Uploaded to: SVG Repo, www.svgrepo.com, Generator: SVG Repo Mixer Tools -->
<svg version="1.1" id="Layer_1" xmlns="http://www.w3.org/2000/svg" xmlns:xlink="http://www.w3.org/1999/xlink" 
	 viewBox="0 0 512 512" xml:space="preserve">
<circle style="fill:#232323;" cx="256" cy="256" r="256"/>
<g>
	<rect x="113.424" y="376.08" style="fill:#CCCBCA;" width="285.144" height="8"/>
	<rect x="157.296" y="400.08" style="fill:#CCCBCA;" width="197.408" height="8"/>
</g>
<g>
	<path style="fill:#FFFFFF;" d="M182.296,254.496c0,6.912-0.616,12.832-1.848,17.76c-1.224,4.92-2.864,9.072-4.92,12.44
		c-2.048,3.376-4.384,6.04-6.984,8c-2.608,1.968-5.32,3.48-8.136,4.528s-5.584,1.728-8.312,2.024
		c-2.728,0.288-5.224,0.44-7.512,0.44c-6.208,0-11.512-0.784-15.912-2.328c-4.392-1.552-7.968-3.632-10.72-6.24
		c-2.76-2.608-4.784-5.64-6.072-9.104s-1.928-7.096-1.928-10.896c0-2.056,0.184-4.312,0.568-6.776c0.376-2.464,0.976-4.92,1.8-7.384
		h17.32v3.248c0,4.568,0.296,8.296,0.88,11.168s1.496,5.152,2.728,6.816c1.224,1.672,2.784,2.824,4.656,3.432
		c1.872,0.616,4.104,0.92,6.68,0.92c4.688,0,8.312-1.712,10.856-5.144s3.824-8.92,3.824-16.488v-27.6
		c-2.224,2.464-5.096,4.52-8.608,6.192s-7.648,2.504-12.4,2.504c-3.4,0-6.856-0.536-10.376-1.624s-6.712-3.024-9.576-5.808
		c-2.872-2.784-5.216-6.56-7.04-11.344c-1.816-4.776-2.728-10.88-2.728-18.328V190.32c0-7.968,0.832-14.728,2.504-20.264
		s4.064-10.024,7.168-13.448c3.112-3.432,6.84-5.904,11.208-7.432s9.272-2.288,14.728-2.288c6.16,0,11.584,0.784,16.304,2.328
		c4.72,1.552,8.704,4.096,11.96,7.608c3.248,3.512,5.712,8.152,7.384,13.888s2.504,12.808,2.504,21.184L182.296,254.496
		L182.296,254.496z M159.256,181.8c0-3.4-0.288-6.288-0.872-8.664s-1.488-4.272-2.68-5.712c-1.2-1.44-2.744-2.48-4.616-3.128
		c-1.872-0.64-4.104-0.968-6.68-0.968c-4.512,0-7.832,1.616-9.936,4.832c-2.112,3.224-3.168,8.064-3.168,14.504v23.032
		c0,3.64,0.32,6.688,0.968,9.152c0.64,2.464,1.544,4.44,2.728,5.928c1.168,1.504,2.576,2.568,4.216,3.208
		c1.64,0.648,3.488,0.968,5.536,0.968c1.576,0,3.088-0.232,4.52-0.704s2.776-1.088,4-1.848c1.232-0.76,2.344-1.632,3.344-2.632
		c0.992-1,1.872-1.992,2.632-2.992V181.8H159.256z"/>
	<path style="fill:#FFFFFF;" d="M201.64,191.112c0-6.56,0.592-12.232,1.8-17.008s2.784-8.792,4.752-12.048
		c1.96-3.248,4.232-5.872,6.816-7.864s5.232-3.528,7.952-4.616c2.728-1.08,5.456-1.8,8.176-2.152s5.224-0.528,7.512-0.528
		c2.168,0,4.584,0.168,7.248,0.488c2.672,0.32,5.368,1,8.096,2.024s5.36,2.52,7.904,4.488c2.552,1.96,4.808,4.584,6.776,7.864
		c1.96,3.28,3.544,7.328,4.752,12.136c1.192,4.808,1.8,10.544,1.8,17.224v63.48c0,6.56-0.6,12.232-1.8,17.008
		c-1.2,4.784-2.808,8.832-4.8,12.176s-4.272,6.056-6.848,8.136c-2.584,2.08-5.216,3.696-7.912,4.832s-5.384,1.912-8.048,2.328
		c-2.664,0.408-5.056,0.616-7.168,0.616c-2.344,0-4.888-0.208-7.648-0.616c-2.76-0.416-5.504-1.184-8.264-2.328
		c-2.752-1.144-5.408-2.744-7.952-4.792c-2.544-2.056-4.792-4.752-6.728-8.096c-1.936-3.336-3.488-7.416-4.656-12.216
		c-1.176-4.808-1.76-10.496-1.76-17.056V191.112z M224.936,264.168c0,6.208,1.128,10.72,3.384,13.536s5.696,4.216,10.328,4.216
		c4.512,0,7.88-1.408,10.112-4.216c2.224-2.824,3.344-7.328,3.344-13.536v-81.32c0-6.56-1.12-11.344-3.344-14.336
		c-2.224-2.984-5.592-4.48-10.112-4.48c-4.632,0-8.072,1.496-10.328,4.48c-2.256,2.992-3.384,7.776-3.384,14.336V264.168z"/>
	<path style="fill:#FFFFFF;" d="M316.592,212.904c-2.544,0-5.112-0.36-7.68-1.072c-2.576-0.72-4.896-2.12-6.984-4.192
		c-2.08-2.08-3.768-5.032-5.064-8.856s-1.944-8.84-1.944-15.064v-7.176c0-4.072,0.312-7.592,0.936-10.568
		c0.624-2.968,1.488-5.504,2.584-7.616c1.096-2.104,2.36-3.8,3.792-5.096s2.952-2.304,4.56-3.024c1.608-0.712,3.256-1.2,4.928-1.48
		c1.68-0.264,3.328-0.4,4.936-0.4c1.512,0,3.112,0.128,4.76,0.368c1.656,0.24,3.28,0.728,4.864,1.448
		c1.584,0.712,3.104,1.712,4.528,2.984s2.68,2.96,3.76,5.064c1.072,2.104,1.92,4.656,2.544,7.648c0.624,3,0.936,6.552,0.936,10.672
		v7.176c0,6.136-0.688,11.104-2.08,14.928c-1.384,3.832-3.144,6.792-5.264,8.888s-4.456,3.52-6.976,4.256
		C321.208,212.536,318.824,212.904,316.592,212.904z M316.728,202.24c2.824,0,4.792-1.216,5.904-3.664
		c1.12-2.44,1.68-6.224,1.68-11.368v-13.024c0-5.184-0.56-9.008-1.68-11.472s-3.088-3.696-5.904-3.696
		c-2.952,0-5.024,1.232-6.2,3.696c-1.184,2.464-1.784,6.28-1.784,11.472v13.024c0,5.144,0.592,8.928,1.784,11.368
		C311.704,201.024,313.776,202.24,316.728,202.24z M357.256,149.768H369.4l-30.8,115.88h-12.208L357.256,149.768z M357.392,230.288
		c0-6.136,0.68-11.04,2.048-14.736c1.368-3.688,3.112-6.528,5.232-8.512c2.128-1.992,4.464-3.312,7.008-3.96
		c2.552-0.648,5.016-0.976,7.384-0.976c1.52,0,3.112,0.128,4.768,0.376c1.656,0.24,3.272,0.728,4.864,1.44
		c1.584,0.72,3.096,1.712,4.528,2.984c1.432,1.28,2.68,2.968,3.752,5.072c1.08,2.104,1.928,4.656,2.552,7.648
		c0.624,3,0.936,6.552,0.936,10.672v7.176c0,4.12-0.328,7.696-0.968,10.736c-0.656,3.04-1.52,5.632-2.616,7.784
		c-1.104,2.152-2.36,3.912-3.8,5.304c-1.432,1.384-2.936,2.488-4.52,3.288c-1.592,0.808-3.208,1.352-4.864,1.64
		s-3.216,0.44-4.696,0.44c-1.704,0-3.416-0.152-5.136-0.44c-1.728-0.288-3.384-0.816-4.968-1.576
		c-1.584-0.76-3.088-1.832-4.496-3.216c-1.416-1.392-2.632-3.16-3.656-5.304c-1.032-2.144-1.848-4.752-2.456-7.816
		s-0.904-6.68-0.904-10.832v-7.192H357.392z M371.144,240.952c0,5.152,0.592,8.936,1.776,11.376s3.256,3.656,6.208,3.656
		c2.824,0,4.784-1.216,5.904-3.656s1.672-6.224,1.672-11.376v-13.016c0-5.184-0.552-9.016-1.672-11.48
		c-1.128-2.456-3.088-3.688-5.904-3.688c-2.952,0-5.024,1.232-6.208,3.688c-1.176,2.464-1.776,6.288-1.776,11.48V240.952z"/>
</g>
</svg>