<?xml version="1.0" encoding="iso-8859-1"?>
<!-- Uploaded to: SVG Repo, www.svgrepo.com, Generator: SVG Repo Mixer Tools -->
<svg version="1.1" id="Layer_1" xmlns="http://www.w3.org/2000/svg" xmlns:xlink="http://www.w3.org/1999/xlink" 
	 viewBox="0 0 512 512" xml:space="preserve">
<circle style="fill:#232323;" cx="256" cy="256" r="256"/>
<g>
	<rect x="113.424" y="376.08" style="fill:#CCCBCA;" width="285.144" height="8"/>
	<rect x="157.296" y="400.08" style="fill:#CCCBCA;" width="197.408" height="8"/>
</g>
<g>
	<path style="fill:#FFFFFF;" d="M110.032,267.832c0-2.512,0.176-5.288,0.528-8.304c0.352-3.024,0.904-6.144,1.672-9.368h17.76v7.648
		c0,4.688,0.392,8.616,1.184,11.784s1.856,5.712,3.2,7.648c1.352,1.936,2.96,3.312,4.832,4.136s3.928,1.224,6.16,1.224
		c2.168,0,4.136-0.304,5.888-0.92c1.76-0.608,3.248-1.624,4.488-3.032c1.224-1.408,2.168-3.208,2.816-5.408
		c0.64-2.192,0.968-4.88,0.968-8.048v-16.608c0-3.168-0.28-5.984-0.832-8.448c-0.56-2.464-1.456-4.52-2.68-6.192
		c-1.232-1.672-2.84-2.944-4.832-3.832c-1.992-0.872-4.464-1.312-7.392-1.312h-9.576v-16.264h9.576c1.872,0,3.632-0.312,5.28-0.92
		c1.64-0.616,3.072-1.616,4.304-2.992s2.192-3.152,2.896-5.32c0.704-2.168,1.056-4.808,1.056-7.904v-15.744
		c0-5.56-1.088-9.656-3.248-12.264c-2.168-2.6-5.392-3.904-9.672-3.904c-4.744,0-8.392,2.128-10.944,6.376
		c-2.544,4.248-3.824,10.36-3.824,18.328v8.52h-17.584c-0.648-2.928-1.2-5.84-1.672-8.744s-0.704-5.968-0.704-9.184
		c0-3.816,0.704-7.608,2.112-11.392c1.408-3.776,3.528-7.184,6.376-10.232s6.448-5.512,10.816-7.392
		c4.368-1.872,9.504-2.816,15.432-2.816c6.392,0,11.864,0.736,16.44,2.2s8.312,3.616,11.208,6.464
		c2.904,2.84,5.04,6.328,6.424,10.464c1.376,4.136,2.064,8.832,2.064,14.112v9.224c0,4.28-0.536,8.08-1.624,11.392
		s-2.496,6.192-4.216,8.656c-1.736,2.464-3.696,4.552-5.888,6.288c-2.192,1.728-4.44,3.12-6.728,4.168v0.704
		c2.928,1,5.656,2.304,8.176,3.912c2.512,1.608,4.704,3.68,6.544,6.192c1.84,2.52,3.296,5.568,4.352,9.152
		c1.056,3.568,1.576,7.824,1.576,12.744v9.936c0,6.912-0.992,12.744-2.984,17.496s-4.688,8.568-8.088,11.48
		c-3.408,2.896-7.376,4.992-11.912,6.28c-4.544,1.288-9.336,1.936-14.376,1.936c-11.488,0-20.248-2.784-26.288-8.352
		C113.056,285.824,110.032,277.976,110.032,267.832z"/>
	<path style="fill:#FFFFFF;" d="M201.464,191.168c0-6.56,0.592-12.232,1.8-17.008s2.784-8.792,4.752-12.048
		c1.96-3.248,4.232-5.872,6.816-7.864s5.232-3.528,7.952-4.616c2.728-1.08,5.456-1.8,8.176-2.152s5.224-0.528,7.512-0.528
		c2.168,0,4.584,0.168,7.248,0.488c2.672,0.32,5.368,1,8.096,2.024s5.36,2.52,7.904,4.488c2.552,1.96,4.808,4.584,6.776,7.864
		c1.96,3.28,3.544,7.328,4.752,12.136c1.192,4.808,1.8,10.544,1.8,17.224v63.48c0,6.56-0.6,12.232-1.8,17.008
		c-1.2,4.784-2.808,8.832-4.8,12.176s-4.272,6.056-6.848,8.136c-2.584,2.08-5.216,3.696-7.912,4.832
		c-2.696,1.144-5.384,1.912-8.048,2.328c-2.664,0.408-5.056,0.616-7.168,0.616c-2.344,0-4.888-0.208-7.648-0.616
		c-2.76-0.416-5.504-1.184-8.264-2.328c-2.752-1.144-5.408-2.744-7.952-4.792c-2.544-2.056-4.792-4.752-6.728-8.096
		c-1.936-3.336-3.488-7.416-4.656-12.216c-1.176-4.808-1.76-10.496-1.76-17.056V191.168z M224.76,264.232
		c0,6.208,1.128,10.72,3.384,13.536s5.696,4.216,10.328,4.216c4.512,0,7.88-1.408,10.112-4.216
		c2.224-2.824,3.344-7.328,3.344-13.536v-81.32c0-6.56-1.12-11.344-3.344-14.336c-2.224-2.984-5.592-4.48-10.112-4.48
		c-4.632,0-8.072,1.496-10.328,4.48c-2.256,2.992-3.384,7.776-3.384,14.336V264.232z"/>
	<path style="fill:#FFFFFF;" d="M316.424,212.968c-2.544,0-5.112-0.36-7.68-1.072c-2.576-0.72-4.896-2.12-6.984-4.192
		c-2.08-2.08-3.768-5.032-5.064-8.856s-1.944-8.84-1.944-15.064v-7.176c0-4.072,0.312-7.592,0.936-10.568
		c0.624-2.968,1.488-5.504,2.584-7.616c1.096-2.104,2.36-3.8,3.792-5.096s2.952-2.304,4.56-3.024c1.608-0.712,3.256-1.2,4.928-1.48
		c1.68-0.264,3.328-0.4,4.936-0.4c1.512,0,3.112,0.128,4.76,0.368c1.656,0.24,3.28,0.728,4.864,1.448
		c1.584,0.712,3.104,1.712,4.528,2.984s2.68,2.96,3.76,5.064c1.072,2.104,1.92,4.656,2.544,7.648c0.624,3,0.936,6.552,0.936,10.672
		v7.176c0,6.136-0.688,11.104-2.08,14.928c-1.384,3.832-3.144,6.792-5.264,8.888s-4.456,3.52-6.976,4.256
		C321.04,212.6,318.656,212.968,316.424,212.968z M316.552,202.304c2.824,0,4.792-1.216,5.904-3.664
		c1.12-2.44,1.68-6.224,1.68-11.368v-13.024c0-5.184-0.56-9.008-1.68-11.472s-3.088-3.696-5.904-3.696
		c-2.952,0-5.024,1.232-6.2,3.696c-1.184,2.464-1.784,6.28-1.784,11.472v13.024c0,5.144,0.592,8.928,1.784,11.368
		C311.528,201.08,313.6,202.304,316.552,202.304z M357.088,149.824h12.144l-30.8,115.88h-12.208L357.088,149.824z M357.216,230.344
		c0-6.136,0.68-11.04,2.048-14.736c1.368-3.688,3.112-6.528,5.232-8.512c2.128-1.992,4.464-3.312,7.008-3.96
		c2.552-0.648,5.016-0.976,7.384-0.976c1.52,0,3.112,0.128,4.768,0.376c1.656,0.24,3.272,0.728,4.864,1.44
		c1.584,0.72,3.096,1.712,4.528,2.984c1.432,1.28,2.68,2.968,3.752,5.072c1.08,2.104,1.928,4.656,2.552,7.648
		c0.624,3,0.936,6.552,0.936,10.672v7.176c0,4.12-0.328,7.696-0.968,10.736c-0.656,3.04-1.52,5.632-2.616,7.784
		c-1.104,2.152-2.36,3.912-3.8,5.304c-1.432,1.384-2.936,2.488-4.52,3.288c-1.592,0.808-3.208,1.352-4.864,1.64
		s-3.216,0.44-4.696,0.44c-1.704,0-3.416-0.152-5.136-0.44c-1.728-0.288-3.384-0.816-4.968-1.576
		c-1.584-0.76-3.088-1.832-4.496-3.216c-1.416-1.392-2.632-3.16-3.656-5.304c-1.032-2.144-1.848-4.752-2.456-7.816
		s-0.904-6.68-0.904-10.832v-7.192H357.216z M370.976,241.008c0,5.152,0.592,8.936,1.776,11.376s3.256,3.656,6.208,3.656
		c2.824,0,4.784-1.216,5.904-3.656s1.672-6.224,1.672-11.376V228c0-5.184-0.552-9.016-1.672-11.48
		c-1.128-2.456-3.088-3.688-5.904-3.688c-2.952,0-5.024,1.232-6.208,3.688c-1.176,2.464-1.776,6.288-1.776,11.48V241.008z"/>
</g>
</svg>