<?xml version="1.0" standalone="no"?>
<!DOCTYPE svg PUBLIC "-//W3C//DTD SVG 20010904//EN"
 "http://www.w3.org/TR/2001/REC-SVG-20010904/DTD/svg10.dtd">
<svg version="1.0" xmlns="http://www.w3.org/2000/svg"
 width="1024.000000pt" height="1024.000000pt" viewBox="0 0 1024.000000 1024.000000"
 preserveAspectRatio="xMidYMid meet">
<metadata>
Created by potrace 1.16, written by Peter Selinger 2001-2019
</metadata>
<g transform="translate(0.000000,1024.000000) scale(0.100000,-0.100000)"
fill="#000000" stroke="none">
<path d="M0 9071 c0 -1105 1 -1170 18 -1174 16 -4 16 -5 0 -6 -17 -1 -18 -196
-18 -3946 l0 -3945 5120 0 5120 0 0 5120 0 5120 -3444 0 -3445 0 -4 -52 -3
-53 -2 52 -2 53 -1035 0 -1034 0 -4 -58 -3 -57 -2 58 -2 57 -630 0 -630 0 0
-1169z m4423 -697 c127 35 429 66 656 66 242 0 570 -29 674 -59 68 -20 155
-43 232 -62 28 -7 55 -16 62 -21 6 -5 56 -24 110 -43 54 -19 92 -35 86 -36 -7
-1 -19 -2 -25 -3 -21 -2 -21 -42 1 -83 16 -33 48 -66 133 -137 9 -8 19 -12 22
-8 7 7 93 -74 108 -103 19 -34 27 -84 14 -88 -6 -2 6 -10 27 -17 20 -8 37 -20
37 -27 0 -18 -19 -16 -26 2 -4 8 -10 15 -16 15 -5 0 -46 17 -91 39 -308 146
-528 217 -822 266 -137 22 -434 38 -582 31 -186 -9 -515 -59 -658 -100 -320
-91 -671 -268 -955 -480 -132 -98 -387 -356 -491 -496 -221 -297 -351 -540
-464 -871 -53 -152 -65 -199 -104 -394 -63 -312 -74 -549 -41 -847 59 -534
247 -1005 577 -1445 215 -287 489 -538 770 -705 199 -119 311 -175 523 -260
178 -71 494 -134 796 -158 206 -17 536 7 762 55 340 71 777 261 1011 439 29
23 75 57 102 76 26 19 75 57 109 83 33 27 60 45 60 40 0 -16 -106 -105 -142
-120 -35 -14 -43 -24 -39 -46 1 -5 -4 -5 -10 -1 -7 4 -17 1 -23 -7 -16 -20
-169 -135 -205 -153 -16 -9 -50 -30 -75 -47 -69 -46 -327 -176 -366 -183 -33
-7 -49 -12 -102 -36 -13 -5 -59 -18 -103 -29 -127 -30 -167 -42 -161 -48 3 -3
-1 -11 -9 -17 -23 -17 8 -56 43 -56 25 1 88 -8 175 -25 30 -6 37 -4 37 9 0 13
11 16 60 16 33 0 60 -4 60 -9 0 -5 18 -12 39 -16 26 -4 41 -13 44 -25 6 -22
-11 -31 -45 -23 -15 3 -19 2 -11 -4 14 -10 -132 -65 -272 -103 -113 -30 -467
-88 -615 -101 -212 -18 -626 14 -850 65 -218 50 -524 163 -754 278 -72 36
-353 211 -366 227 -3 4 -59 47 -125 96 -236 177 -542 504 -684 733 -27 42 -62
97 -79 122 -50 74 -197 377 -240 495 -99 270 -114 315 -137 405 -66 263 -89
472 -88 805 0 213 4 291 23 430 13 94 23 186 24 207 1 20 3 34 5 32 3 -3 17
48 32 113 15 65 43 162 63 217 23 63 34 107 30 122 -5 18 -3 24 7 22 9 -2 14
5 13 19 0 12 3 20 6 18 4 -3 24 37 45 88 21 50 45 106 55 122 9 17 46 84 80
150 59 113 88 164 118 210 6 11 18 31 25 45 6 14 20 34 30 45 10 11 28 36 40
55 11 19 31 48 44 63 13 16 20 34 17 39 -4 6 -2 8 4 4 6 -3 20 6 31 21 11 16
25 33 31 40 5 7 10 18 10 24 0 7 3 10 6 6 9 -8 54 48 54 67 0 9 5 15 12 14 7
-2 17 7 23 20 5 12 13 22 17 22 5 0 8 7 8 16 0 8 4 13 9 10 12 -8 82 65 74 77
-3 6 -2 8 3 5 11 -7 35 17 26 26 -3 4 1 4 11 0 13 -5 17 -1 17 16 0 11 5 18
10 15 6 -3 10 2 10 12 0 15 2 16 10 3 8 -13 10 -12 10 2 0 10 6 17 13 15 6 -1
11 4 10 10 -2 7 3 12 10 10 6 -1 11 4 10 10 -2 7 0 12 5 11 12 -5 92 56 92 70
0 7 5 10 10 7 6 -3 10 -1 10 5 0 6 4 9 9 6 5 -4 11 -2 13 2 1 5 30 28 62 53
l59 44 -334 5 -334 5 343 3 342 2 2 138 2 137 5 -127 c3 -69 9 -129 12 -132 3
-3 27 9 55 27 130 86 400 225 559 289 55 22 341 111 393 123 l32 7 2 101 2
102 3 -99 c4 -96 4 -98 26 -92z m881 -527 c55 -24 38 -35 -74 -47 -108 -11
-140 -19 -140 -31 0 -5 15 -9 34 -9 25 0 35 -5 39 -19 7 -27 -5 -41 -39 -43
-16 -1 -37 -12 -46 -23 -10 -11 -17 -15 -18 -10 0 14 -43 14 -52 2 -3 -6 -23
-12 -44 -14 -21 -2 -43 -8 -50 -14 -6 -5 -22 -8 -36 -7 -13 1 -42 -7 -64 -17
-21 -10 -43 -20 -49 -20 -5 -1 -17 -3 -25 -4 -13 -1 -13 -2 0 -11 12 -8 9 -10
-13 -10 -16 0 -30 -7 -34 -16 -3 -8 -12 -13 -19 -10 -7 3 -16 1 -19 -4 -4 -6
-11 -10 -16 -10 -6 0 -7 5 -4 10 3 6 1 10 -4 10 -6 0 -11 -7 -11 -15 0 -13
-38 -22 -72 -16 -5 0 -8 -11 -8 -26 0 -14 -3 -23 -7 -20 -3 4 -12 2 -20 -5 -7
-6 -16 -8 -20 -4 -3 3 -15 -1 -25 -11 -11 -9 -18 -11 -18 -5 0 7 -7 12 -15 12
-16 0 -23 -21 -35 -103 l-8 -52 -2 65 c-2 36 -5 55 -7 42 -3 -15 -10 -22 -18
-18 -8 3 -17 1 -20 -4 -3 -5 -12 -7 -20 -3 -8 3 -15 1 -15 -5 0 -6 -11 -9 -25
-7 -21 2 -25 -2 -25 -24 0 -19 -3 -22 -9 -12 -8 12 -12 12 -25 2 -9 -8 -16
-10 -16 -6 0 4 -6 2 -13 -4 -8 -6 -17 -8 -21 -4 -3 4 -13 -2 -21 -13 -8 -10
-15 -15 -15 -11 0 4 -10 2 -22 -5 -13 -7 -29 -11 -35 -10 -7 2 -13 -2 -13 -8
0 -6 -4 -8 -10 -5 -5 3 -10 -1 -10 -10 0 -9 -7 -16 -17 -14 -34 3 -43 -1 -44
-18 -1 -12 -4 -10 -9 7 l-8 25 -1 -24 c-1 -20 -3 -21 -16 -11 -13 11 -15 8
-15 -16 -1 -25 -2 -26 -11 -11 -5 9 -14 17 -19 17 -6 0 -11 -8 -11 -17 -1 -17
-2 -17 -6 0 -2 9 -9 17 -14 17 -5 0 -9 -8 -9 -17 -1 -16 -2 -16 -15 1 -15 19
-15 19 -15 -2 0 -24 -15 -30 -23 -9 -3 6 -6 3 -6 -7 -1 -20 -1 -20 -16 0 -14
18 -14 17 -15 -16 -2 -35 -2 -35 -11 -8 -7 17 -15 25 -25 21 -8 -3 -14 0 -14
6 0 25 -20 9 -21 -16 -1 -17 -3 -21 -6 -10 -2 9 -8 17 -13 17 -4 0 -11 -8 -16
-17 -6 -15 -8 -13 -14 12 -6 24 -8 25 -9 8 -2 -38 -21 -26 -22 15 l-2 37 -7
-40 c-7 -38 -7 -38 -9 -8 -1 31 -2 31 -32 23 -18 -5 -35 -7 -40 -5 -12 8 -39
-6 -32 -18 4 -6 0 -8 -10 -4 -22 8 -110 -66 -197 -166 -39 -44 -70 -84 -70
-89 0 -4 -6 -8 -12 -8 -7 0 -24 -15 -37 -33 l-23 -32 7 55 c4 30 7 63 7 73 0
9 6 17 14 17 8 0 12 5 9 11 -4 5 4 20 17 33 12 13 52 55 87 95 39 43 70 70 78
66 8 -2 11 -1 8 4 -9 16 125 139 225 206 127 84 357 215 450 255 219 93 516
178 685 194 22 2 148 3 280 2 201 -2 246 -5 279 -19z m-1737 -1509 c33 -57 87
-152 119 -213 32 -60 100 -177 153 -260 52 -82 134 -215 181 -295 48 -80 103
-171 123 -203 l35 -58 53 98 c29 54 78 136 109 183 32 47 99 153 150 235 51
83 125 202 164 265 40 63 101 168 137 234 l64 118 204 -6 c113 -4 207 -9 210
-12 4 -3 7 -584 9 -1290 l3 -1284 -230 0 c-127 0 -234 -1 -237 -2 -4 -2 -6
319 -6 712 1 393 -2 735 -6 759 l-7 43 -53 -76 c-29 -41 -87 -135 -129 -208
-41 -73 -104 -178 -138 -233 -84 -135 -143 -237 -156 -271 -16 -43 -120 -194
-133 -194 -6 0 -29 31 -51 68 -21 37 -69 112 -105 167 -36 55 -110 177 -165
270 -54 94 -131 222 -170 285 -40 63 -85 139 -100 168 -16 28 -29 51 -31 49
-1 -1 -5 -346 -9 -767 l-5 -765 -193 -1 c-105 0 -212 -4 -237 -8 l-45 -6 -2
1300 -2 1300 218 0 218 0 60 -102z m2898 87 c55 -2 121 -10 146 -18 58 -19
201 -91 259 -130 151 -104 297 -317 350 -510 87 -318 0 -656 -229 -887 -72
-73 -101 -94 -181 -133 -145 -71 -176 -77 -520 -92 -168 -7 -305 -14 -306 -14
-1 -1 -4 -178 -8 -393 -4 -216 -8 -393 -9 -393 -1 0 -107 1 -236 3 l-234 3 6
97 c4 53 7 631 7 1284 l0 1187 63 3 c82 4 764 -1 892 -7z m205 -3389 c0 -9
-263 -167 -355 -213 -456 -229 -955 -321 -1456 -268 -190 20 -229 27 -437 85
-227 62 -432 146 -564 230 -45 28 -61 50 -37 50 5 0 7 -4 4 -10 -3 -5 -1 -10
5 -10 13 0 40 25 40 37 0 4 16 9 36 11 25 1 33 -1 28 -10 -4 -6 -3 -8 3 -5 6
4 28 -2 50 -13 87 -42 322 -133 416 -161 215 -63 353 -80 497 -59 74 10 297
16 305 8 3 -3 29 -1 58 4 28 6 66 8 83 5 29 -5 31 -3 27 21 -3 25 -2 25 12 -5
12 -27 21 -33 45 -33 17 0 30 -4 30 -10 0 -5 5 -10 10 -10 6 0 10 8 10 18 0 9
4 13 8 7 8 -12 45 -12 120 0 38 5 50 11 40 17 -9 7 -4 8 15 5 37 -6 128 14
257 56 123 41 314 115 385 150 28 13 65 31 83 38 17 8 32 17 32 20 0 18 65 31
130 27 51 -3 73 -1 81 9 10 12 39 19 39 9z"/>
<path d="M5980 5547 l0 -375 218 5 c230 5 302 13 356 38 54 26 109 79 139 132
98 182 6 451 -186 539 -62 29 -63 29 -294 32 l-233 4 0 -375z"/>
</g>
</svg>
